<svg width="10" height="18" viewBox="0 0 10 18" fill="none" xmlns="http://www.w3.org/2000/svg">
<path d="M0.744058 9.5868H2.71715V17.7097C2.71715 17.8701 2.8471 18 3.00747 18H6.35292C6.51329 18 6.64324 17.8701 6.64324 17.7097V9.62506H8.91147C9.05895 9.62506 9.18304 9.51439 9.19988 9.3679L9.54437 6.37746C9.55384 6.29518 9.52777 6.21279 9.47272 6.15106C9.41762 6.08928 9.33877 6.05392 9.25603 6.05392H6.64335V4.17937C6.64335 3.61428 6.94761 3.32774 7.54777 3.32774C7.6333 3.32774 9.25603 3.32774 9.25603 3.32774C9.4164 3.32774 9.54635 3.19773 9.54635 3.03741V0.292471C9.54635 0.132097 9.4164 0.00214839 9.25603 0.00214839H6.9018C6.88519 0.00133548 6.84832 0 6.79397 0C6.38549 0 4.96564 0.080187 3.84406 1.11199C2.60137 2.2554 2.77411 3.62445 2.81539 3.86181V6.05386H0.744058C0.583684 6.05386 0.453735 6.18381 0.453735 6.34419V9.29642C0.453735 9.45679 0.583684 9.5868 0.744058 9.5868Z" fill="#959595"/>
</svg>
