<svg width="18" height="16" viewBox="0 0 18 16" fill="none" xmlns="http://www.w3.org/2000/svg">
<path d="M17.5921 2.3326C17.3093 2.45802 17.0186 2.56387 16.7215 2.6498C17.0732 2.25206 17.3413 1.78406 17.505 1.27194C17.5417 1.15714 17.5037 1.03149 17.4093 0.956416C17.3151 0.88128 17.1841 0.87228 17.0804 0.93377C16.4495 1.30794 15.7689 1.57683 15.0552 1.73407C14.3363 1.03161 13.3599 0.631836 12.3505 0.631836C10.2199 0.631836 8.4864 2.36523 8.4864 4.49584C8.4864 4.66365 8.49703 4.83052 8.51805 4.99508C5.87409 4.76294 3.41605 3.4634 1.72812 1.39288C1.66797 1.31909 1.5753 1.27931 1.48042 1.28692C1.38549 1.29435 1.30019 1.34789 1.25223 1.43016C0.90988 2.0176 0.728894 2.68946 0.728894 3.37305C0.728894 4.30411 1.06131 5.1875 1.64852 5.87777C1.46997 5.81593 1.2967 5.73865 1.13134 5.64685C1.04256 5.59744 0.934209 5.59819 0.84601 5.64877C0.757752 5.69934 0.702417 5.79236 0.700094 5.89403C0.699687 5.91116 0.699687 5.92829 0.699687 5.94565C0.699687 7.33542 1.44767 8.58665 2.59125 9.26861C2.493 9.2588 2.39482 9.24457 2.29727 9.22594C2.1967 9.20672 2.09329 9.24196 2.02547 9.31866C1.95754 9.39531 1.93506 9.50215 1.96636 9.5997C2.38965 10.9212 3.47946 11.8933 4.79694 12.1897C3.70423 12.8741 2.45462 13.2325 1.14283 13.2325C0.869119 13.2325 0.593836 13.2165 0.324418 13.1846C0.190579 13.1687 0.0626057 13.2477 0.0170252 13.375C-0.0285553 13.5023 0.0197542 13.6443 0.133618 13.7173C1.81882 14.7978 3.7674 15.3689 5.76859 15.3689C9.70268 15.3689 12.1637 13.5138 13.5355 11.9575C15.2461 10.0169 16.2271 7.4483 16.2271 4.91036C16.2271 4.80434 16.2255 4.69727 16.2223 4.59055C16.8971 4.08208 17.4782 3.46671 17.951 2.75943C18.0228 2.65201 18.0151 2.51004 17.9318 2.41116C17.8488 2.31222 17.7103 2.28022 17.5921 2.3326Z" fill="#959595"/>
</svg>
